REM DIRINDEX 1\5,1\2\6,1\2\7,1\3\8,1\3\9,1\4\10,1\4\11,1\4\12
REM DIRNAME folder01,folder02,folder03,folder04,folder05,folder06,folder07,folder08,folder09,folder10,folder11,folder12
TITLE ""
FILE "EJ_DB3000_5th_4B_44.mp3" MP3
  TRACK 01 AUDIO
    TITLE "0:"
    INDEX 01 00:00:00
  TRACK 02 AUDIO
    TITLE "9:cjc026_05425"
    INDEX 01 00:00:05
  TRACK 03 AUDIO
    TITLE "0:"
    INDEX 01 00:00:68
  TRACK 04 AUDIO
    TITLE "8:cjc026_05426"
    INDEX 01 00:01:21
  TRACK 05 AUDIO
    TITLE "0:"
    INDEX 01 00:02:34
  TRACK 06 AUDIO
    TITLE "9:cjc026_05427"
    INDEX 01 00:02:59
  TRACK 07 AUDIO
    TITLE "0:"
    INDEX 01 00:03:55
  TRACK 08 AUDIO
    TITLE "8:cjc026_05428"
    INDEX 01 00:04:05
  TRACK 09 AUDIO
    TITLE "0:"
    INDEX 01 00:05:16
  TRACK 10 AUDIO
    TITLE "9:cjc026_05429"
    INDEX 01 00:05:42
  TRACK 11 AUDIO
    TITLE "0:"
    INDEX 01 00:06:35
  TRACK 12 AUDIO
    TITLE "8:cjc026_05430"
    INDEX 01 00:06:63
  TRACK 13 AUDIO
    TITLE "0:"
    INDEX 01 00:08:01
  TRACK 14 AUDIO
    TITLE "9:cjc026_05431"
    INDEX 01 00:08:28
  TRACK 15 AUDIO
    TITLE "0:"
    INDEX 01 00:09:26
  TRACK 16 AUDIO
    TITLE "8:cjc026_05432"
    INDEX 01 00:09:53
  TRACK 17 AUDIO
    TITLE "0:"
    INDEX 01 00:10:66
  TRACK 18 AUDIO
    TITLE "9:cjc026_05433"
    INDEX 01 00:11:19
  TRACK 19 AUDIO
    TITLE "0:"
    INDEX 01 00:12:11
  TRACK 20 AUDIO
    TITLE "8:cjc026_05434"
    INDEX 01 00:12:36
  TRACK 21 AUDIO
    TITLE "0:"
    INDEX 01 00:13:32
  TRACK 22 AUDIO
    TITLE "9:cjc026_05435"
    INDEX 01 00:13:55
  TRACK 23 AUDIO
    TITLE "0:"
    INDEX 01 00:14:47
  TRACK 24 AUDIO
    TITLE "8:cjc026_05436"
    INDEX 01 00:14:72
  TRACK 25 AUDIO
    TITLE "0:"
    INDEX 01 00:16:08
  TRACK 26 AUDIO
    TITLE "9:cjc026_05437"
    INDEX 01 00:16:34
  TRACK 27 AUDIO
    TITLE "0:"
    INDEX 01 00:17:29
  TRACK 28 AUDIO
    TITLE "8:cjc026_05438"
    INDEX 01 00:17:57
  TRACK 29 AUDIO
    TITLE "0:"
    INDEX 01 00:18:72
  TRACK 30 AUDIO
    TITLE "9:cjc026_05439"
    INDEX 01 00:19:22
  TRACK 31 AUDIO
    TITLE "0:"
    INDEX 01 00:20:14
  TRACK 32 AUDIO
    TITLE "8:cjc026_05440"
    INDEX 01 00:20:41
  TRACK 33 AUDIO
    TITLE "0:"
    INDEX 01 00:21:43
  TRACK 34 AUDIO
    TITLE "9:cjc026_05441"
    INDEX 01 00:21:68
  TRACK 35 AUDIO
    TITLE "0:"
    INDEX 01 00:22:68
  TRACK 36 AUDIO
    TITLE "8:cjc026_05442"
    INDEX 01 00:23:18
  TRACK 37 AUDIO
    TITLE "0:"
    INDEX 01 00:24:24
  TRACK 38 AUDIO
    TITLE "9:cjc026_05443"
    INDEX 01 00:24:49
  TRACK 39 AUDIO
    TITLE "0:"
    INDEX 01 00:25:46
  TRACK 40 AUDIO
    TITLE "8:cjc026_05444"
    INDEX 01 00:25:72
  TRACK 41 AUDIO
    TITLE "0:"
    INDEX 01 00:26:60
  TRACK 42 AUDIO
    TITLE "9:cjc026_05445"
    INDEX 01 00:27:10
  TRACK 43 AUDIO
    TITLE "0:"
    INDEX 01 00:28:04
  TRACK 44 AUDIO
    TITLE "8:cjc026_05446"
    INDEX 01 00:28:29
  TRACK 45 AUDIO
    TITLE "0:"
    INDEX 01 00:29:27
  TRACK 46 AUDIO
    TITLE "9:cjc026_05447"
    INDEX 01 00:29:52
  TRACK 47 AUDIO
    TITLE "0:"
    INDEX 01 00:30:42
  TRACK 48 AUDIO
    TITLE "8:cjc026_05448"
    INDEX 01 00:30:69
  TRACK 49 AUDIO
    TITLE "0:"
    INDEX 01 00:31:65
  TRACK 50 AUDIO
    TITLE "9:cjc026_05449"
    INDEX 01 00:32:17
  TRACK 51 AUDIO
    TITLE "0:"
    INDEX 01 00:33:17
  TRACK 52 AUDIO
    TITLE "8:cjc026_05450"
    INDEX 01 00:33:44
  TRACK 53 AUDIO
    TITLE "0:"
    INDEX 01 00:34:71
  TRACK 54 AUDIO
    TITLE "9:cjc026_05451"
    INDEX 01 00:35:21
  TRACK 55 AUDIO
    TITLE "0:"
    INDEX 01 00:36:25
  TRACK 56 AUDIO
    TITLE "8:cjc026_05452"
    INDEX 01 00:36:50
  TRACK 57 AUDIO
    TITLE "0:"
    INDEX 01 00:37:71
  TRACK 58 AUDIO
    TITLE "9:cjc026_05453"
    INDEX 01 00:38:22
  TRACK 59 AUDIO
    TITLE "0:"
    INDEX 01 00:39:21
  TRACK 60 AUDIO
    TITLE "8:cjc026_05454"
    INDEX 01 00:39:49
  TRACK 61 AUDIO
    TITLE "0:"
    INDEX 01 00:40:73
